<svg width="23" height="21" viewBox="0 0 23 21" fill="none" xmlns="http://www.w3.org/2000/svg">
<mask id="path-1-inside-1_111_39" fill="white">
<path fill-rule="evenodd" clip-rule="evenodd" d="M5.25838 1.03998C5.40369 0.805162 5.33114 0.497006 5.09632 0.351692C4.86151 0.206378 4.55335 0.278933 4.40804 0.513749L2.08331 4.27032L1.25853 2.93754C1.11322 2.70272 0.805064 2.63017 0.570248 2.77548C0.335433 2.92079 0.262877 3.22895 0.408191 3.46376L1.65814 5.48359C1.74928 5.63085 1.91013 5.72047 2.08331 5.72047C2.2565 5.72047 2.41735 5.63085 2.50849 5.48359L5.25838 1.03998ZM9.83301 0.776798C9.28073 0.776798 8.83301 1.22451 8.83301 1.7768V4.35197C8.83301 4.90425 9.28073 5.35197 9.83301 5.35197H22.0092C22.5615 5.35197 23.0092 4.90425 23.0092 4.35197V1.7768C23.0092 1.22451 22.5615 0.776798 22.0092 0.776798H9.83301ZM9.83305 8.18282C9.28077 8.18282 8.83305 8.63053 8.83305 9.18282V11.758C8.83305 12.3103 9.28077 12.758 9.83305 12.758H22.0093C22.5616 12.758 23.0093 12.3103 23.0093 11.758V9.18282C23.0093 8.63053 22.5616 8.18282 22.0093 8.18282H9.83305ZM8.83305 16.3239C8.83305 15.7717 9.28077 15.3239 9.83305 15.3239H22.0093C22.5616 15.3239 23.0093 15.7717 23.0093 16.3239V18.8991C23.0093 19.4514 22.5616 19.8991 22.0093 19.8991H9.83305C9.28077 19.8991 8.83305 19.4514 8.83305 18.8991V16.3239ZM5.09628 7.7576C5.3311 7.90291 5.40365 8.21107 5.25834 8.44588L2.50844 12.8895C2.41731 13.0368 2.25646 13.1264 2.08327 13.1264C1.91009 13.1264 1.74924 13.0368 1.6581 12.8895L0.408149 10.8697C0.262835 10.6349 0.335391 10.3267 0.570207 10.1814C0.805023 10.0361 1.11318 10.1086 1.25849 10.3434L2.08327 11.6762L4.40799 7.91965C4.55331 7.68484 4.86146 7.61228 5.09628 7.7576ZM2.71162 20.0376C3.74895 20.0376 4.58988 19.0134 4.58988 17.75C4.58988 16.4866 3.74895 15.4624 2.71162 15.4624C1.67429 15.4624 0.833363 16.4866 0.833363 17.75C0.833363 19.0134 1.67429 20.0376 2.71162 20.0376Z"/>
</mask>
<path fill-rule="evenodd" clip-rule="evenodd" d="M5.25838 1.03998C5.40369 0.805162 5.33114 0.497006 5.09632 0.351692C4.86151 0.206378 4.55335 0.278933 4.40804 0.513749L2.08331 4.27032L1.25853 2.93754C1.11322 2.70272 0.805064 2.63017 0.570248 2.77548C0.335433 2.92079 0.262877 3.22895 0.408191 3.46376L1.65814 5.48359C1.74928 5.63085 1.91013 5.72047 2.08331 5.72047C2.2565 5.72047 2.41735 5.63085 2.50849 5.48359L5.25838 1.03998ZM9.83301 0.776798C9.28073 0.776798 8.83301 1.22451 8.83301 1.7768V4.35197C8.83301 4.90425 9.28073 5.35197 9.83301 5.35197H22.0092C22.5615 5.35197 23.0092 4.90425 23.0092 4.35197V1.7768C23.0092 1.22451 22.5615 0.776798 22.0092 0.776798H9.83301ZM9.83305 8.18282C9.28077 8.18282 8.83305 8.63053 8.83305 9.18282V11.758C8.83305 12.3103 9.28077 12.758 9.83305 12.758H22.0093C22.5616 12.758 23.0093 12.3103 23.0093 11.758V9.18282C23.0093 8.63053 22.5616 8.18282 22.0093 8.18282H9.83305ZM8.83305 16.3239C8.83305 15.7717 9.28077 15.3239 9.83305 15.3239H22.0093C22.5616 15.3239 23.0093 15.7717 23.0093 16.3239V18.8991C23.0093 19.4514 22.5616 19.8991 22.0093 19.8991H9.83305C9.28077 19.8991 8.83305 19.4514 8.83305 18.8991V16.3239ZM5.09628 7.7576C5.3311 7.90291 5.40365 8.21107 5.25834 8.44588L2.50844 12.8895C2.41731 13.0368 2.25646 13.1264 2.08327 13.1264C1.91009 13.1264 1.74924 13.0368 1.6581 12.8895L0.408149 10.8697C0.262835 10.6349 0.335391 10.3267 0.570207 10.1814C0.805023 10.0361 1.11318 10.1086 1.25849 10.3434L2.08327 11.6762L4.40799 7.91965C4.55331 7.68484 4.86146 7.61228 5.09628 7.7576ZM2.71162 20.0376C3.74895 20.0376 4.58988 19.0134 4.58988 17.75C4.58988 16.4866 3.74895 15.4624 2.71162 15.4624C1.67429 15.4624 0.833363 16.4866 0.833363 17.75C0.833363 19.0134 1.67429 20.0376 2.71162 20.0376Z" fill="white"/>
<path d="M5.09632 0.351692L4.57009 1.20203V1.20203L5.09632 0.351692ZM5.25838 1.03998L4.40804 0.513749L4.40804 0.513749L5.25838 1.03998ZM4.40804 0.513749L3.55769 -0.0124798L3.55769 -0.0124792L4.40804 0.513749ZM2.08331 4.27032L1.23297 4.79654L2.08331 6.17063L2.93366 4.79654L2.08331 4.27032ZM1.25853 2.93754L0.408191 3.46376L0.408191 3.46376L1.25853 2.93754ZM0.570248 2.77548L1.09648 3.62582V3.62582L0.570248 2.77548ZM0.408191 3.46376L1.25853 2.93754L0.408191 3.46376ZM1.65814 5.48359L2.50849 4.95736L1.65814 5.48359ZM2.50849 5.48359L3.35883 6.00982L3.35883 6.00982L2.50849 5.48359ZM5.25834 8.44588L6.10868 8.97211L5.25834 8.44588ZM5.09628 7.7576L5.62251 6.90725L5.62251 6.90725L5.09628 7.7576ZM2.50844 12.8895L1.6581 12.3633L1.6581 12.3633L2.50844 12.8895ZM1.6581 12.8895L0.807758 13.4157H0.807758L1.6581 12.8895ZM0.408149 10.8697L1.25849 10.3434H1.25849L0.408149 10.8697ZM0.570207 10.1814L0.0439802 9.33104L0.0439777 9.33104L0.570207 10.1814ZM1.25849 10.3434L2.10884 9.81721H2.10884L1.25849 10.3434ZM2.08327 11.6762L1.23293 12.2024L2.08327 13.5765L2.93362 12.2024L2.08327 11.6762ZM4.40799 7.91965L3.55765 7.39343L3.55765 7.39343L4.40799 7.91965ZM4.57009 1.20203C4.33528 1.05672 4.26272 0.748567 4.40804 0.513749L6.10872 1.56621C6.54467 0.861756 6.327 -0.0627109 5.62255 -0.498651L4.57009 1.20203ZM5.25838 1.03998C5.11307 1.27479 4.80491 1.34735 4.57009 1.20203L5.62255 -0.498651C4.9181 -0.934594 3.99364 -0.716926 3.55769 -0.0124798L5.25838 1.03998ZM2.93366 4.79654L5.25838 1.03998L3.55769 -0.0124792L1.23297 3.74409L2.93366 4.79654ZM0.408191 3.46376L1.23297 4.79654L2.93366 3.74409L2.10888 2.41131L0.408191 3.46376ZM1.09648 3.62582C0.861661 3.77114 0.553505 3.69858 0.408191 3.46376L2.10888 2.41131C1.67294 1.70686 0.748467 1.48919 0.04402 1.92514L1.09648 3.62582ZM1.25853 2.93754C1.40385 3.17235 1.33129 3.48051 1.09648 3.62582L0.0440201 1.92514C-0.660427 2.36108 -0.878094 3.28555 -0.442152 3.98999L1.25853 2.93754ZM2.50849 4.95736L1.25853 2.93754L-0.442152 3.98999L0.8078 6.00982L2.50849 4.95736ZM2.08331 4.72047C2.2565 4.72047 2.41735 4.81009 2.50849 4.95736L0.8078 6.00982C1.0812 6.45162 1.56376 6.72047 2.08331 6.72047V4.72047ZM1.65814 4.95736C1.74928 4.81009 1.91013 4.72047 2.08331 4.72047V6.72047C2.60287 6.72047 3.08542 6.45162 3.35883 6.00982L1.65814 4.95736ZM4.40804 0.513749L1.65814 4.95736L3.35883 6.00982L6.10872 1.56621L4.40804 0.513749ZM9.83301 1.7768V1.7768V-0.223202C8.72844 -0.223202 7.83301 0.672231 7.83301 1.7768H9.83301ZM9.83301 4.35197V1.7768H7.83301V4.35197H9.83301ZM9.83301 4.35197H7.83301C7.83301 5.45654 8.72844 6.35197 9.83301 6.35197V4.35197ZM22.0092 4.35197H9.83301V6.35197H22.0092V4.35197ZM22.0092 4.35197V4.35197V6.35197C23.1138 6.35197 24.0092 5.45653 24.0092 4.35197H22.0092ZM22.0092 1.7768V4.35197H24.0092V1.7768H22.0092ZM22.0092 1.7768H24.0092C24.0092 0.672228 23.1138 -0.223202 22.0092 -0.223202V1.7768ZM9.83301 1.7768H22.0092V-0.223202H9.83301V1.7768ZM9.83305 9.18282V9.18282V7.18282C8.72848 7.18282 7.83306 8.07825 7.83306 9.18282H9.83305ZM9.83305 11.758V9.18282H7.83306V11.758H9.83305ZM9.83305 11.758H7.83306C7.83306 12.8626 8.72849 13.758 9.83305 13.758V11.758ZM22.0093 11.758H9.83305V13.758H22.0093V11.758ZM22.0093 11.758V11.758V13.758C23.1138 13.758 24.0093 12.8626 24.0093 11.758H22.0093ZM22.0093 9.18282V11.758H24.0093V9.18282H22.0093ZM22.0093 9.18282H24.0093C24.0093 8.07825 23.1138 7.18282 22.0093 7.18282V9.18282ZM9.83305 9.18282H22.0093V7.18282H9.83305V9.18282ZM9.83305 14.3239C8.72848 14.3239 7.83306 15.2194 7.83306 16.3239H9.83305V14.3239ZM22.0093 14.3239H9.83305V16.3239H22.0093V14.3239ZM24.0093 16.3239C24.0093 15.2194 23.1138 14.3239 22.0093 14.3239V16.3239H24.0093ZM24.0093 18.8991V16.3239H22.0093V18.8991H24.0093ZM22.0093 20.8991C23.1138 20.8991 24.0093 20.0037 24.0093 18.8991H22.0093V20.8991ZM9.83305 20.8991H22.0093V18.8991H9.83305V20.8991ZM7.83306 18.8991C7.83306 20.0037 8.72849 20.8991 9.83305 20.8991V18.8991H7.83306ZM7.83306 16.3239V18.8991H9.83305V16.3239H7.83306ZM6.10868 8.97211C6.54462 8.26766 6.32696 7.3432 5.62251 6.90725L4.57005 8.60794C4.33524 8.46263 4.26268 8.15447 4.40799 7.91965L6.10868 8.97211ZM3.35879 13.4157L6.10868 8.97211L4.408 7.91965L1.6581 12.3633L3.35879 13.4157ZM2.08327 14.1264C2.60283 14.1264 3.08538 13.8575 3.35879 13.4157L1.6581 12.3633C1.74924 12.216 1.91009 12.1264 2.08327 12.1264V14.1264ZM0.807758 13.4157C1.08116 13.8575 1.56372 14.1264 2.08327 14.1264V12.1264C2.25646 12.1264 2.41731 12.216 2.50844 12.3633L0.807758 13.4157ZM-0.442194 11.3959L0.807758 13.4157L2.50844 12.3633L1.25849 10.3434L-0.442194 11.3959ZM0.0439777 9.33104C-0.660468 9.76698 -0.878136 10.6915 -0.442194 11.3959L1.25849 10.3434C1.40381 10.5783 1.33125 10.8864 1.09644 11.0317L0.0439777 9.33104ZM2.10884 9.81721C1.67289 9.11277 0.748427 8.8951 0.0439802 9.33104L1.09643 11.0317C0.861619 11.177 0.553464 11.1045 0.408149 10.8697L2.10884 9.81721ZM2.93362 11.15L2.10884 9.81721L0.408149 10.8697L1.23293 12.2024L2.93362 11.15ZM3.55765 7.39343L1.23293 11.15L2.93362 12.2024L5.25834 8.44588L3.55765 7.39343ZM5.62251 6.90725C4.91806 6.47131 3.99359 6.68898 3.55765 7.39343L5.25834 8.44588C5.11302 8.6807 4.80487 8.75325 4.57005 8.60794L5.62251 6.90725ZM3.58988 17.75C3.58988 18.6546 3.02132 19.0376 2.71162 19.0376V21.0376C4.47659 21.0376 5.58988 19.3723 5.58988 17.75H3.58988ZM2.71162 16.4624C3.02132 16.4624 3.58988 16.8455 3.58988 17.75H5.58988C5.58988 16.1278 4.47659 14.4624 2.71162 14.4624V16.4624ZM1.83336 17.75C1.83336 16.8455 2.40192 16.4624 2.71162 16.4624V14.4624C0.946652 14.4624 -0.166637 16.1278 -0.166637 17.75H1.83336ZM2.71162 19.0376C2.40192 19.0376 1.83336 18.6546 1.83336 17.75H-0.166637C-0.166637 19.3723 0.946652 21.0376 2.71162 21.0376V19.0376Z" fill="black" mask="url(#path-1-inside-1_111_39)"/>
</svg>
