<svg width="24" height="27" viewBox="0 0 24 27" fill="none" xmlns="http://www.w3.org/2000/svg">
<path d="M23.7262 21.3458C22.9496 20.6525 22.2696 19.8577 21.7047 18.9828C21.0874 17.7754 20.7177 16.4565 20.6175 15.1037V11.1198C20.6228 8.99522 19.8532 6.94184 18.4532 5.34543C17.0533 3.74903 15.1193 2.71948 13.0148 2.45023V1.40989C13.0148 1.12435 12.9015 0.8505 12.6999 0.648591C12.4982 0.446683 12.2247 0.333252 11.9396 0.333252C11.6544 0.333252 11.381 0.446683 11.1793 0.648591C10.9777 0.8505 10.8644 1.12435 10.8644 1.40989V2.46636C8.77873 2.75502 6.86817 3.79079 5.4866 5.38183C4.10504 6.97287 3.34609 9.01137 3.35034 11.1198V15.1037C3.25011 16.4565 2.88043 17.7754 2.26309 18.9828C1.70809 19.8557 1.03908 20.6504 0.273826 21.3458C0.187918 21.4214 0.119067 21.5144 0.071853 21.6187C0.0246391 21.723 0.000144802 21.8361 0 21.9506V23.0474C0 23.2613 0.0848511 23.4665 0.235887 23.6177C0.386923 23.7689 0.591772 23.8539 0.805369 23.8539H23.1946C23.4082 23.8539 23.6131 23.7689 23.7641 23.6177C23.9151 23.4665 24 23.2613 24 23.0474V21.9506C23.9999 21.8361 23.9754 21.723 23.9282 21.6187C23.8809 21.5144 23.8121 21.4214 23.7262 21.3458ZM1.67517 22.241C2.42432 21.516 3.08405 20.7037 3.64027 19.8216C4.41809 18.3634 4.87142 16.7539 4.96913 15.1037V11.1198C4.93719 10.1746 5.09551 9.23269 5.43467 8.35009C5.77382 7.46748 6.28688 6.66224 6.94329 5.98232C7.59969 5.3024 8.38602 4.76171 9.25545 4.39243C10.1249 4.02315 11.0596 3.83285 12.004 3.83285C12.9484 3.83285 13.8832 4.02315 14.7526 4.39243C15.622 4.76171 16.4084 5.3024 17.0648 5.98232C17.7212 6.66224 18.2342 7.46748 18.5734 8.35009C18.9125 9.23269 19.0709 10.1746 19.0389 11.1198V15.1037C19.1366 16.7539 19.59 18.3634 20.3678 19.8216C20.924 20.7037 21.5837 21.516 22.3329 22.241H1.67517Z" fill="black"/>
<path d="M11.76 27C12.2325 26.9893 12.6858 26.8153 13.04 26.5086C13.3941 26.2019 13.6261 25.7823 13.695 25.3242H9.75C9.82086 25.7948 10.0637 26.2242 10.4335 26.5325C10.8032 26.8407 11.2746 27.0069 11.76 27Z" fill="black"/>
</svg>
